<svg xmlns="http://www.w3.org/2000/svg" xmlns:xlink="http://www.w3.org/1999/xlink" width="500" zoomAndPan="magnify" viewBox="0 0 375 374.999991" height="500" preserveAspectRatio="xMidYMid meet" version="1.0"><defs><g/><clipPath id="b9804fced1"><path d="M 0 0.441406 L 375 0.441406 L 375 297 L 0 297 Z M 0 0.441406 " clip-rule="nonzero"/></clipPath><clipPath id="b93d95a4cb"><rect x="0" width="375" y="0" height="297"/></clipPath><clipPath id="f2a2285006"><path d="M 0 326 L 375 326 L 375 329.480469 L 0 329.480469 Z M 0 326 " clip-rule="nonzero"/></clipPath><clipPath id="0bd6c957b9"><rect x="0" width="375" y="0" height="330"/></clipPath></defs><g transform="matrix(1, 0, 0, 1, 0, 37)"><g clip-path="url(#0bd6c957b9)"><g clip-path="url(#b9804fced1)"><g transform="matrix(1, 0, 0, 1, 0, 0)"><g clip-path="url(#b93d95a4cb)"><g fill="#000000" fill-opacity="1"><g transform="translate(0.727815, 244.214752)"><g><path d="M 135.96875 -222.859375 L 135.96875 -199.8125 L 81.578125 -199.8125 L 81.578125 0 L 56.75 0 L 56.75 -199.8125 L 2.953125 -199.8125 L 2.953125 -222.859375 Z M 135.96875 -222.859375 "/></g></g></g><g fill="#000000" fill-opacity="1"><g transform="translate(130.783904, 244.214752)"><g><path d="M 11.234375 -111.140625 C 11.234375 -131.628906 16.40625 -150.738281 26.75 -168.46875 C 37.09375 -186.207031 51.226562 -200.347656 69.15625 -210.890625 C 87.09375 -221.429688 106.503906 -226.703125 127.390625 -226.703125 C 148.085938 -226.703125 167.347656 -221.578125 185.171875 -211.328125 C 203.003906 -201.085938 217.191406 -187 227.734375 -169.0625 C 238.285156 -151.132812 243.5625 -131.828125 243.5625 -111.140625 C 243.5625 -90.640625 238.382812 -71.519531 228.03125 -53.78125 C 217.6875 -36.050781 203.597656 -22.015625 185.765625 -11.671875 C 167.929688 -1.328125 148.472656 3.84375 127.390625 3.84375 C 106.703125 3.84375 87.390625 -1.273438 69.453125 -11.515625 C 51.523438 -21.765625 37.335938 -35.804688 26.890625 -53.640625 C 16.453125 -71.472656 11.234375 -90.640625 11.234375 -111.140625 Z M 127.09375 -203.65625 C 110.539062 -203.65625 95.269531 -199.414062 81.28125 -190.9375 C 67.289062 -182.46875 56.253906 -171.1875 48.171875 -157.09375 C 40.097656 -143.007812 36.0625 -127.789062 36.0625 -111.4375 C 36.0625 -95.082031 40.195312 -79.8125 48.46875 -65.625 C 56.75 -51.4375 67.929688 -40.15625 82.015625 -31.78125 C 96.109375 -23.40625 111.234375 -19.21875 127.390625 -19.21875 C 143.742188 -19.21875 159.0625 -23.453125 173.34375 -31.921875 C 187.632812 -40.390625 198.769531 -51.71875 206.75 -65.90625 C 214.738281 -80.101562 218.734375 -95.28125 218.734375 -111.4375 C 218.734375 -127.988281 214.640625 -143.40625 206.453125 -157.6875 C 198.273438 -171.976562 187.140625 -183.210938 173.046875 -191.390625 C 158.960938 -199.566406 143.644531 -203.65625 127.09375 -203.65625 Z M 127.09375 -203.65625 "/></g></g></g></g></g></g><g clip-path="url(#f2a2285006)"><path stroke-linecap="butt" transform="matrix(0.863222, -0.000000000000000321, 0.000000000000000321, 0.863222, -33.152527, 326.886822)" fill="none" stroke-linejoin="miter" d="M 0.000212846 1.502247 L 524.357595 1.502247 " stroke="#000000" stroke-width="3" stroke-opacity="1" stroke-miterlimit="4"/></g></g></g></svg>