<?xml version="1.0" encoding="UTF-8"?> <svg xmlns="http://www.w3.org/2000/svg" width="390" height="163" viewBox="0 0 390 163" fill="none"><path d="M379.408 44.9941C372.444 37.1295 362.235 32.9704 349.811 32.9704C337.955 32.9704 326.498 37.6101 318.934 45.1355C318.906 44.4566 318.821 43.8059 318.678 43.127C318.422 40.8354 317.427 38.8835 315.778 37.4405C313.276 34.6679 309.694 33.1404 305.685 33.1404H305.031C299.06 33.1404 293.345 36.5636 290.502 41.7692C289.45 43.4666 288.796 45.2772 288.54 47.1443L275.433 148.623C274.978 152.216 276.115 155.696 278.504 158.101C281.005 160.987 284.645 162.571 288.739 162.571H289.393C297.383 162.571 304.69 156.347 305.685 148.68L307.817 132.158C307.931 131.224 307.959 130.263 307.874 129.329L309.068 120.134C314.527 128.084 324.877 132.95 337.272 132.95C364.341 132.95 384.329 113.43 388.222 83.2151C390.354 67.0892 387.286 53.8774 379.408 44.9941ZM358.456 82.7341C356.408 98.5769 346.031 108.847 332.043 108.847C325.93 108.847 320.925 106.838 317.57 103.047C313.56 98.5203 312.025 91.6739 313.106 83.2434C315.209 67.0327 325.302 56.9896 339.492 56.9896C345.605 56.9896 350.607 58.9981 353.964 62.7892C357.971 67.3441 359.535 74.2467 358.456 82.7341Z" fill="#5C64FF"></path><path d="M103.475 8.32922C100.547 0.973603 91.4197 -2.02522 83.0893 1.62429C77.5448 4.05729 73.7634 8.83846 72.7114 13.9591C72.3132 15.1756 72.0575 16.4487 72.0006 17.6935C72.0006 17.8349 71.9723 18.0047 71.9723 18.1461C71.9437 18.3159 71.9437 18.4573 71.9154 18.5988C71.8868 18.7402 71.8868 18.91 71.8868 19.0514C71.8586 19.1929 71.8586 19.3626 71.8586 19.5041C71.83 19.6455 71.83 19.8153 71.83 19.9567C71.8017 20.0982 71.8017 20.2679 71.8017 20.4094C71.7731 20.6357 71.7731 20.862 71.7448 21.0884C71.7162 21.3713 71.6879 21.6542 71.6879 21.9371C71.6593 22.1917 71.6311 22.4463 71.6025 22.7292C71.6025 22.8707 71.5742 23.0404 71.5742 23.1819C71.5742 23.3234 71.5456 23.4931 71.5173 23.6345C71.4887 23.776 71.4887 23.9457 71.4604 24.0872C71.4318 24.2286 71.4318 24.3984 71.4036 24.5398C71.375 24.6813 71.375 24.8511 71.3467 24.9925C71.3181 25.134 71.3181 25.3037 71.2898 25.4452C71.2612 25.5866 71.2612 25.7563 71.2329 25.8978C71.2047 26.0393 71.2047 26.209 71.1761 26.3505C71.1478 26.4919 71.1478 26.6617 71.1192 26.8031C71.0909 26.9446 71.0909 27.1143 71.0623 27.2558C71.1192 27.4538 71.1192 27.5953 71.0909 27.765C71.0623 27.9064 71.0623 28.0762 71.034 28.2177C71.0054 28.444 70.9772 28.6986 70.9486 28.9249C70.9203 29.2078 70.8634 29.4908 70.8634 29.7736C70.8348 29.9434 70.8065 30.1131 70.8065 30.3112C70.8065 30.3395 70.8065 30.3678 70.8065 30.4243C70.7779 30.5658 70.7497 30.7355 70.7497 30.877C70.7211 31.0184 70.6928 31.1882 70.6928 31.3296C70.6642 31.4711 70.6642 31.6409 70.6359 31.7823C70.6073 31.9237 70.6073 32.0935 70.579 32.235C70.5504 32.3764 70.5504 32.5461 70.5222 32.6877C70.4936 32.8291 70.4936 32.9987 70.4653 33.1404C70.4367 33.2818 70.4367 33.4514 70.4084 33.5928C70.3801 33.7345 70.3801 33.9042 70.3515 34.0455C70.2947 34.3003 70.2664 34.5831 70.2378 34.8376C70.1809 35.1206 70.1526 35.4034 70.124 35.6865C70.0958 35.9127 70.0389 36.1392 70.0103 36.3654C69.982 36.5068 69.9534 36.6767 69.9251 36.8181C69.8683 37.1009 69.8683 37.4122 69.8397 37.695C69.8114 37.8932 69.7828 38.0629 69.7828 38.2608C69.7828 38.4025 69.7545 38.5156 69.7545 38.657C69.7545 38.9114 69.7828 39.1662 69.7828 39.4207C69.7828 39.5341 69.7545 39.6472 69.7545 39.7321C69.6408 47.2009 75.6968 52.7457 83.5725 52.6609C84.1127 52.6609 84.6814 52.6609 85.2216 52.6043C86.6717 52.463 88.0364 52.1233 89.3442 51.6141C93.5237 50.1148 97.1348 47.0592 99.1534 43.0987C100.035 41.4013 100.433 39.6472 100.774 37.7801C101.001 36.4502 101.229 35.1206 101.343 33.7911C101.371 33.5928 101.399 33.3949 101.399 33.1687C101.428 32.9704 101.456 32.7725 101.456 32.5461C101.485 32.3481 101.513 32.1784 101.513 31.9803C101.542 31.8389 101.542 31.6974 101.57 31.556C101.599 31.3862 101.627 31.2165 101.627 31.0467C101.656 30.8487 101.684 30.6507 101.712 30.4243C101.741 30.2263 101.769 30.0283 101.798 29.8019C101.826 29.6039 101.854 29.4059 101.883 29.2078C101.883 29.1229 101.911 29.0664 101.911 28.9815C101.911 28.8966 101.94 28.84 101.94 28.7552C101.968 28.5572 101.996 28.3591 102.025 28.1611C102.053 27.963 102.082 27.765 102.11 27.5387C102.139 27.3406 102.167 27.1426 102.196 26.9163C102.224 26.7182 102.253 26.5202 102.281 26.3222C102.309 26.2373 102.338 26.0393 102.366 25.8129C102.395 25.6149 102.423 25.4169 102.451 25.1905C102.48 24.9925 102.537 24.7945 102.537 24.5681C102.565 24.4267 102.594 24.2852 102.622 24.1155C102.651 23.9175 102.679 23.7477 102.707 23.5497C102.736 23.3516 102.764 23.1536 102.821 22.9556C102.85 22.7575 102.878 22.5595 102.935 22.3615C102.963 22.1634 103.02 21.9654 103.048 21.7674C103.077 21.5693 103.134 21.3713 103.162 21.1733C103.191 20.9752 103.248 20.7772 103.276 20.5791C103.305 20.3811 103.361 20.1831 103.39 19.9567C103.418 19.7587 103.475 19.5889 103.503 19.3909C103.532 19.2495 103.56 19.108 103.589 18.9666C103.646 18.7685 103.674 18.5705 103.702 18.3724C103.759 18.1744 103.788 17.9764 103.816 17.7783C103.873 17.5803 103.902 17.3823 103.93 17.1842C103.958 16.9862 104.015 16.7882 104.044 16.5901C104.072 16.3921 104.129 16.1941 104.157 15.996C104.612 13.3933 104.442 10.7905 103.475 8.32922Z" fill="#5C64FF"></path><path d="M102.623 13.4787C99.6941 6.12315 90.5674 3.12431 82.2367 6.77383C76.6925 9.20685 72.9108 13.988 71.8588 19.1086C71.461 20.3251 71.2049 21.5982 71.148 22.843C71.148 22.9845 71.1198 23.1542 71.1198 23.2957C71.0912 23.4371 71.0912 23.5786 71.0912 23.7483C71.0629 23.8898 71.0629 24.0595 71.0629 24.2009C71.0343 24.3424 71.0343 24.5122 71.0343 24.6536C71.006 24.7951 71.006 24.9648 71.006 25.1063C70.9774 25.2477 70.9774 25.4175 70.9774 25.5589C70.9491 25.7853 70.9491 26.0116 70.9205 26.2379C70.8923 26.5208 70.8637 26.8037 70.8637 27.0866C70.8354 27.3412 70.8068 27.5959 70.7785 27.8788C70.7785 28.0202 70.7499 28.19 70.7499 28.3314C70.7499 28.4729 70.7216 28.6426 70.693 28.7841C70.6648 28.9255 70.6648 29.0953 70.6365 29.2367C70.6079 29.3782 70.6079 29.5479 70.5796 29.6894C70.551 29.8308 70.551 30.0006 70.5227 30.142C70.4941 30.2835 70.4941 30.4532 70.4659 30.5947C70.4373 30.7361 70.4373 30.9059 70.409 31.0473C70.3804 31.1888 70.3804 31.3585 70.3521 31.5C70.3235 31.6414 70.3235 31.8112 70.2952 31.9527C70.2666 32.0941 70.2666 32.2638 70.2384 32.4053C70.2098 32.5468 70.2098 32.7166 70.1815 32.858C70.1529 32.9993 70.1529 33.169 70.1246 33.3107C70.096 33.5369 70.0677 33.7917 70.0391 34.0179C70.0109 34.3006 69.954 34.5837 69.954 34.8665C69.9254 35.0364 69.8971 35.2061 69.8971 35.404C69.8971 35.4323 69.8971 35.4606 69.8971 35.5171C69.8685 35.6588 69.8402 35.8285 69.8402 35.9698C69.8116 36.1115 69.7834 36.2812 69.7834 36.4226C69.7551 36.5639 69.7551 36.7339 69.7265 36.8753C69.6982 37.0167 69.6982 37.1863 69.6696 37.328C69.6413 37.4694 69.6413 37.639 69.6127 37.7804C69.5845 37.9221 69.5845 38.0918 69.5559 38.2331C69.5276 38.3745 69.5276 38.5445 69.499 38.6859C69.4707 38.8272 69.4707 38.9969 69.4421 39.1386C69.3852 39.3931 69.357 39.6761 69.3284 39.9306C69.2715 40.2137 69.2432 40.4964 69.2146 40.7795C69.1863 41.0057 69.1295 41.2319 69.1009 41.4584C69.0726 41.5998 69.044 41.7695 69.0157 41.9109C68.9588 42.1939 68.9588 42.5053 68.9302 42.788C68.902 42.9859 68.8737 43.1559 68.8737 43.3538C68.8737 43.4952 68.8451 43.6083 68.8451 43.75C68.8451 44.0045 68.8737 44.2593 68.8737 44.5138C68.8737 44.6269 68.8451 44.74 68.8451 44.8248C68.7313 52.2936 74.7874 57.8388 82.6631 57.7539C83.2033 57.7539 83.772 57.7539 84.3122 57.6974C85.7623 57.5557 87.127 57.2164 88.4348 56.7071C92.6143 55.2076 96.2254 52.1522 98.2439 48.1915C99.1253 46.494 99.5235 44.74 99.8647 42.8728C100.092 41.5433 100.319 40.2137 100.433 38.8838C100.462 38.6859 100.49 38.4879 100.49 38.2614C100.519 38.0635 100.547 37.8656 100.547 37.639C100.575 37.4411 100.604 37.2715 100.604 37.0732C100.632 36.9318 100.632 36.7905 100.661 36.6488C100.689 36.4791 100.718 36.3095 100.718 36.1398C100.746 35.9416 100.774 35.7436 100.803 35.5171C100.831 35.3192 100.86 35.1213 100.888 34.8947C100.917 34.6968 100.945 34.4989 100.974 34.3006C100.974 34.2158 101.002 34.1593 101.002 34.0744C101.002 33.9896 101.03 33.9331 101.03 33.8482C101.059 33.65 101.087 33.4521 101.116 33.2541C101.144 33.0559 101.173 32.858 101.201 32.6318C101.229 32.4336 101.258 32.2355 101.286 32.0092C101.315 31.8112 101.343 31.6132 101.371 31.4151C101.4 31.2171 101.428 31.0191 101.457 30.7927C101.485 30.5947 101.514 30.3967 101.542 30.1703C101.571 29.9723 101.628 29.7742 101.628 29.5479C101.656 29.4065 101.684 29.265 101.713 29.0953C101.741 28.8972 101.77 28.7275 101.798 28.5295C101.826 28.3314 101.855 28.1334 101.912 27.9354C101.94 27.7373 101.969 27.5393 102.026 27.3412C102.054 27.1432 102.111 26.9452 102.139 26.7471C102.168 26.5491 102.225 26.3511 102.253 26.153C102.338 26.0964 102.367 25.8984 102.395 25.7004C102.423 25.5023 102.48 25.3043 102.509 25.078C102.537 24.8799 102.594 24.7102 102.623 24.5122C102.651 24.3707 102.68 24.2293 102.708 24.0878C102.765 23.8898 102.793 23.6917 102.822 23.4937C102.878 23.2957 102.907 23.0976 102.935 22.8996C102.992 22.7016 103.02 22.5035 103.049 22.3055C103.077 22.1074 103.134 21.9094 103.163 21.7114C103.191 21.5133 103.248 21.3153 103.277 21.1173C103.76 18.5145 103.589 15.9118 102.623 13.4787Z" fill="#5C64FF"></path><path d="M173.845 4.73602C171.229 1.7655 167.419 0.124634 163.155 0.124634C154.739 0.124634 147.062 6.6881 146.01 14.7227L140.551 56.961H95.1448L93.0124 56.8761H81.1275L80.8435 56.9044C69.4704 58.4319 65.7173 66.3817 64.4947 70.9932L58.6092 116.485C58.0977 120.417 59.2063 124.151 61.737 127.009C64.3526 129.979 68.1626 131.62 72.4273 131.62C80.8435 131.62 88.52 125.057 89.572 117.022L93.9221 83.3562H137.139L132.846 116.513C132.334 120.445 133.443 124.18 135.973 127.037C138.589 130.008 142.399 131.649 146.664 131.649C155.08 131.649 162.756 125.085 163.808 117.051L176.944 15.2885C177.484 11.3278 176.376 7.59342 173.845 4.73602Z" fill="#5C64FF"></path><path d="M279.895 40.7223C278.559 37.497 276 35.0641 272.674 33.9042L272.475 33.8476C265.338 31.3298 256.524 35.3754 252.856 42.8157L245.407 57.9798L224.851 97.1625L213.62 55.9144C213.592 55.49 213.45 55.1224 213.393 54.9242L209.81 42.1367C208.9 38.8552 206.683 36.1675 203.612 34.5831C200.143 32.8008 195.878 32.6311 191.926 34.0455L191.699 34.1307C184.022 36.9029 179.388 44.9659 181.407 52.0668L184.733 63.9491L184.705 63.9208L185.842 67.8816C185.984 68.4192 186.183 68.9564 186.439 69.5222L204.692 128.565L197.215 143.531C195.423 147.124 195.196 151.141 196.617 154.565C197.954 157.818 200.598 160.307 204.039 161.496L204.237 161.552C205.744 162.09 207.337 162.344 208.9 162.344C214.473 162.344 220.131 159.261 223.088 154.168C223.543 153.518 223.913 152.924 224.254 152.301L270.172 70.8238L270.57 70.1446L270.513 70.088L270.57 70.1163L270.683 69.9466C270.769 69.777 270.883 69.6073 270.968 69.4374L279.298 52.4912C281.146 48.6439 281.374 44.3435 279.895 40.7223Z" fill="#5C64FF"></path><path d="M15.5641 108.28C10.6168 115.494 12.2375 124.915 19.1749 129.357C26.1124 133.798 35.751 131.535 40.6981 124.349C45.6453 117.163 43.9962 107.714 37.0588 103.272C30.1213 98.831 20.4828 101.066 15.5641 108.28Z" fill="#FFB4A8"></path><path d="M61.6513 108.28C56.7042 115.494 58.3532 124.915 65.2907 129.357C72.2281 133.798 81.8666 131.535 86.8138 124.349C91.7609 117.163 90.1119 107.714 83.1744 103.272C76.2084 98.831 66.5699 101.066 61.6513 108.28Z" fill="#5C64FF"></path><path d="M10.1895 89.4115L25.4292 93.5702C32.7931 95.5787 40.4131 91.2787 42.4317 83.9512C44.4502 76.6241 40.1287 69.0422 32.7645 67.0333L17.4966 62.8746C10.1327 60.8661 2.51284 65.1662 0.494156 72.4933C-1.52453 79.8208 2.8256 87.4027 10.1895 89.4115Z" fill="#FF6B5C"></path><path d="M23.7797 41.6281L33.5319 56.9899C37.9106 63.8929 47.1224 65.9583 54.0598 61.6013C60.9973 57.2447 63.0731 48.0784 58.6943 41.1754L48.9138 25.8135C44.5351 18.9105 35.3233 16.8453 28.3857 21.2021C21.4482 25.5872 19.3727 34.7251 23.7797 41.6281Z" fill="#9ECFFF"></path></svg> 